<?xml version="1.0" encoding="utf-8"?>
<svg width="350" height="14.085" viewBox="0 0 350 14.085" fill="none" xmlns="http://www.w3.org/2000/svg">
  <defs>
    <clipPath id="clip_path_1">
      <rect width="350" height="14.085" />
    </clipPath>
  </defs>
  <g clip-path="url(#clip_path_1)">
    <rect width="350" height="14.085" />
    <path id="Path" d="M0 0.0352135C0 0.0352135 0.105629 0.492961 2.11268 2.14789C4.15493 3.80282 6.90141 3.97887 14.8592 2.88733C17.6408 2.5 20.6338 2.04226 23.4507 1.97183C27.0423 1.8662 30.3873 1.79578 33.9789 2.14789C37.7113 2.5 41.5141 2.99296 45.0352 4.26057C49.1549 5.73944 50.2113 7.00705 50.2817 7.11268C50.2817 7.11268 50.2817 7.11268 50.2817 7.11268C50.2817 7.11268 50.2817 7.11268 50.2817 7.11268C50.2817 7.11268 50.2817 7.11268 50.2817 7.11268C50.2817 7.11268 50.2817 7.07747 50.2817 7.07747C50.3873 6.97183 51.4085 5.70423 55.5282 4.22535C59.0845 2.95774 62.8521 2.46479 66.5845 2.11268C70.1761 1.76056 73.4859 1.79578 77.1127 1.93662C79.8944 2.04225 82.9226 2.46479 85.7043 2.85211C93.6268 3.94367 96.4085 3.76761 98.4508 2.11268C100.493 0.457747 100.563 0 100.563 0C100.563 0 50.2817 0 50.2817 0L50.2817 0L0 0C0 0 0 0.0352135 0 0.0352135Z" fill="#333333" transform="translate(124.261 6.972)" />
    <path id="Path" d="M100.563 7.07746C100.563 7.07746 100.458 6.61972 98.4507 4.96479C96.4085 3.30986 93.662 3.1338 85.7043 4.22535C82.9226 4.61268 79.9296 5.07042 77.1127 5.14084C73.5211 5.24648 70.1761 5.3169 66.5845 4.96479C62.8521 4.61268 59.0493 4.11972 55.5282 2.85211C51.4085 1.37324 50.3521 0.105632 50.2817 0C50.2817 0 50.2817 0 50.2817 0C50.2817 0 50.2817 0 50.2817 0C50.2817 0 50.2817 0 50.2817 0C50.2817 0 50.2817 0.0352107 50.2817 0.0352107C50.1761 0.140846 49.1549 1.40845 45.0352 2.88733C41.4789 4.15493 37.7113 4.64789 33.9789 5C30.3873 5.35211 27.0775 5.3169 23.4507 5.17606C20.669 5.07042 17.6408 4.64789 14.8592 4.26056C6.93662 3.16901 4.15493 3.34507 2.11268 5C0.0704269 6.65493 0 7.11268 0 7.11268C0 7.11268 50.2817 7.11268 50.2817 7.11268L50.2817 7.11268L100.563 7.11268C100.563 7.11268 100.563 7.07746 100.563 7.07746Z" fill="#333333" transform="translate(124.261 0)" />
    <path id="Circle" d="M0 4.01408C0 1.79717 1.79716 0 4.01408 0C6.231 0 8.02817 1.79717 8.02817 4.01408C8.02817 6.231 6.231 8.02817 4.01408 8.02817C1.79716 8.02817 0 6.231 0 4.01408Z" fill="#333333" fill-rule="evenodd" transform="translate(228.556 2.852)" />
    <rect id="Rectangle" width="62.007" height="0.845" fill="#333333" fill-rule="evenodd" transform="translate(239.965 7.007)" />
    <path id="Circle" d="M0 2.71127C0 1.21388 1.21387 0 2.71127 0C4.20868 0 5.42255 1.21388 5.42255 2.71127C5.42255 4.20866 4.20868 5.42253 2.71127 5.42253C1.21387 5.42253 0 4.20866 0 2.71127Z" fill="#333333" fill-rule="evenodd" transform="translate(305.739 4.789)" />
    <path id="Path" d="M36.2676 0C36.2676 0 36.2324 0.176056 35.493 0.774647C34.7535 1.37324 33.7676 1.44366 30.9155 1.05634C29.9295 0.915495 28.838 0.739439 27.8169 0.739439C26.5141 0.704226 25.3169 0.669018 24.0141 0.80986C22.6761 0.950704 21.3028 1.12676 20.0352 1.58451C18.5563 2.11268 18.169 2.57042 18.1338 2.60563C18.1338 2.60563 18.1338 2.60563 18.1338 2.60563C18.1338 2.60563 18.1338 2.60563 18.1338 2.60563C18.1338 2.60563 18.1338 2.60563 18.1338 2.60563C18.1338 2.60563 18.1338 2.60563 18.1338 2.60563C18.0986 2.57042 17.7113 2.11268 16.2324 1.58451C14.9648 1.12676 13.5916 0.950704 12.2535 0.80986C10.9507 0.669018 9.75351 0.704226 8.45071 0.739439C7.42957 0.774652 6.37323 0.915495 5.35211 1.05634C2.5 1.44366 1.51407 1.37324 0.774658 0.774647C0.0352173 0.176056 0 0 0 0C0 0 18.0986 0 18.0986 0L18.0986 0L36.2676 0C36.2676 0 36.2676 0 36.2676 0Z" fill="#333333" transform="translate(313.662 7.5)" />
    <path id="Path" d="M0 2.60563C0 2.60563 0.0352173 2.42958 0.774658 1.83098C1.51407 1.23239 2.5 1.16197 5.35211 1.54929C6.33804 1.69014 7.4296 1.86619 8.45071 1.86619C9.75354 1.90141 10.9507 1.93661 12.2535 1.79577C13.5916 1.65493 14.9648 1.47887 16.2324 1.02112C17.7113 0.492956 18.0986 0.0352082 18.1338 0C18.1338 0 18.1338 0 18.1338 0C18.1338 0 18.1338 0 18.1338 0C18.1338 0 18.1338 0 18.1338 0C18.1338 0 18.1338 0 18.1338 0C18.169 0.0352135 18.5563 0.492956 20.0352 1.02112C21.3028 1.47887 22.6761 1.65493 24.0141 1.79577C25.3169 1.93661 26.5141 1.90141 27.8169 1.86619C28.838 1.83098 29.8944 1.69014 30.9155 1.54929C33.7676 1.16197 34.7535 1.23239 35.493 1.83098C36.2324 2.42958 36.2676 2.60563 36.2676 2.60563C36.2676 2.60563 18.169 2.60563 18.169 2.60563L18.169 2.60563L0 2.60563C0 2.60563 0 2.60563 0 2.60563Z" fill="#333333" transform="translate(313.732 4.93)" />
    <path id="Circle" d="M0 4.01408C0 1.79717 1.79716 0 4.01408 0C6.231 0 8.02817 1.79717 8.02817 4.01408C8.02817 6.231 6.231 8.02817 4.01408 8.02817C1.79716 8.02817 0 6.231 0 4.01408Z" fill="#333333" fill-rule="evenodd" transform="translate(113.416 2.852)" />
    <rect id="Rectangle" width="62.007" height="0.845" fill="#333333" fill-rule="evenodd" transform="translate(48.028 7.007)" />
    <path id="Circle" d="M0 2.71127C0 1.21388 1.21387 0 2.71127 0C4.20866 0 5.42253 1.21388 5.42253 2.71127C5.42253 4.20866 4.20866 5.42253 2.71127 5.42253C1.21387 5.42253 0 4.20866 0 2.71127Z" fill="#333333" fill-rule="evenodd" transform="translate(38.838 4.789)" />
    <g id="Group" transform="translate(0 4.93)">
      <path id="Path" d="M0 0C0 0 0.0352107 0.176056 0.774648 0.774647C1.51408 1.37324 2.5 1.44366 5.35211 1.05634C6.33803 0.915495 7.42958 0.739439 8.4507 0.739439C9.75352 0.704225 10.9507 0.669017 12.2535 0.80986C13.5916 0.950703 14.9648 1.12676 16.2324 1.58451C17.7113 2.11268 18.0986 2.57042 18.1338 2.60563C18.1338 2.60563 18.1338 2.60563 18.1338 2.60563C18.1338 2.60563 18.1338 2.60563 18.1338 2.60563C18.1338 2.60563 18.1338 2.60563 18.1338 2.60563C18.1338 2.60563 18.1338 2.60563 18.1338 2.60563C18.169 2.57042 18.5563 2.11268 20.0352 1.58451C21.3028 1.12676 22.6761 0.950703 24.0141 0.80986C25.3169 0.669017 26.5141 0.704225 27.8169 0.739439C28.838 0.774652 29.8944 0.915495 30.9155 1.05634C33.7676 1.44366 34.7535 1.37324 35.493 0.774647C36.2324 0.176056 36.2676 0 36.2676 0C36.2676 0 18.169 0 18.169 0L18.169 0L0 0C0 0 0 0 0 0Z" fill="#333333" transform="translate(0.07 2.57)" />
      <path id="Path" d="M36.2676 2.60563C36.2676 2.60563 36.2324 2.42958 35.493 1.83098C34.7535 1.23239 33.7676 1.16197 30.9155 1.54929C29.9296 1.69014 28.838 1.86619 27.8169 1.86619C26.5141 1.90141 25.3169 1.93661 24.0141 1.79577C22.6761 1.65493 21.3028 1.47887 20.0352 1.02112C18.5563 0.492956 18.169 0.035208 18.1338 0C18.1338 0 18.1338 0 18.1338 0C18.1338 0 18.1338 0 18.1338 0C18.1338 0 18.1338 0 18.1338 0C18.1338 0 18.1338 0 18.1338 0C18.0986 0.0352134 17.7113 0.492956 16.2324 1.02112C14.9648 1.47887 13.5916 1.65493 12.2535 1.79577C10.9507 1.93661 9.75352 1.90141 8.4507 1.86619C7.42958 1.83098 6.37324 1.69014 5.35211 1.54929C2.5 1.16197 1.51408 1.23239 0.774648 1.83098C0.0352121 2.42958 0 2.60563 0 2.60563C0 2.60563 18.0986 2.60563 18.0986 2.60563L18.0986 2.60563L36.2676 2.60563C36.2676 2.60563 36.2676 2.60563 36.2676 2.60563Z" fill="#333333" />
    </g>
  </g>
</svg>